<?xml version="1.0" encoding="iso-8859-1"?>
<!-- Generator: Adobe Illustrator 19.0.0, SVG Export Plug-In . SVG Version: 6.00 Build 0)  -->
<svg xmlns="http://www.w3.org/2000/svg" xmlns:xlink="http://www.w3.org/1999/xlink" version="1.1" id="Layer_1" x="0px" y="0px" viewBox="0 0 453.001 453.001" style="enable-background:new 0 0 453.001 453.001;" xml:space="preserve" width="512px" height="512px">
<g>
	<g>
		<g>
			<path d="M420.135,110.203H280.091l49.728-81.594c4.312-7.074,2.072-16.304-5.002-20.615c-7.073-4.313-16.304-2.072-20.615,5.002     l-59.243,97.207h-36.916L148.8,12.996c-4.311-7.072-13.541-9.312-20.615-5.002c-7.074,4.312-9.314,13.541-5.002,20.615     l49.728,81.594H32.865C14.743,110.203,0,124.946,0,143.067v271.271c0,18.121,14.743,32.864,32.865,32.864h387.271     c18.122,0,32.865-14.743,32.865-32.864V143.067C453,124.946,438.257,110.203,420.135,110.203z M423.001,414.338L423.001,414.338     c-0.001,1.579-1.286,2.864-2.866,2.864H32.865c-1.58,0-2.865-1.285-2.865-2.864V143.067c0-1.579,1.285-2.864,2.865-2.864h387.271     c1.58,0,2.865,1.285,2.865,2.864V414.338z" fill="#ffff40"/>
			<path d="M299.812,164.629H71.188c-9.866,0-17.865,7.999-17.865,17.865v192.418c0,9.866,7.998,17.865,17.865,17.865h228.623     c9.866,0,17.865-7.999,17.865-17.865V182.494C317.676,172.627,309.678,164.629,299.812,164.629z M287.677,362.776     L287.677,362.776H83.324V194.629h204.353V362.776z" fill="#ffff40"/>
			<path d="M370.792,188.203c-17.093,0-31,13.906-31,31s13.907,31,31,31c17.093,0,31-13.906,31-31S387.885,188.203,370.792,188.203z     " fill="#ffff40"/>
			<path d="M370.792,307.203c-17.093,0-31,13.906-31,31s13.907,31,31,31c17.093,0,31-13.906,31-31S387.885,307.203,370.792,307.203z     " fill="#ffff40"/>
		</g>
	</g>
</g>
<g>
</g>
<g>
</g>
<g>
</g>
<g>
</g>
<g>
</g>
<g>
</g>
<g>
</g>
<g>
</g>
<g>
</g>
<g>
</g>
<g>
</g>
<g>
</g>
<g>
</g>
<g>
</g>
<g>
</g>
</svg>
