<?xml version="1.0" encoding="iso-8859-1"?>
<!-- Generator: Adobe Illustrator 18.0.0, SVG Export Plug-In . SVG Version: 6.00 Build 0)  -->
<!DOCTYPE svg PUBLIC "-//W3C//DTD SVG 1.1//EN" "http://www.w3.org/Graphics/SVG/1.1/DTD/svg11.dtd">
<svg xmlns="http://www.w3.org/2000/svg" xmlns:xlink="http://www.w3.org/1999/xlink" version="1.1" id="Capa_1" x="0px" y="0px" viewBox="0 0 383.563 383.563" style="enable-background:new 0 0 383.563 383.563;" xml:space="preserve" width="512px" height="512px">
<g>
	<path d="M359.399,62.563H239.697c-0.929-5.959-2.956-11.555-5.852-16.592l99.926-31.312c3.953-1.238,6.153-5.447,4.915-9.399   c-1.239-3.953-5.446-6.156-9.399-4.914L223.562,33.475c-8.519-7.41-19.632-11.912-31.783-11.912   c-12.151,0-23.263,4.502-31.782,11.912L54.271,0.346c-3.954-1.239-8.161,0.962-9.399,4.914c-1.239,3.953,0.961,8.161,4.914,9.399   l99.926,31.312c-2.896,5.037-4.923,10.633-5.852,16.592H24.164c-12.445,0-22.57,10.125-22.57,22.569v253.861   c0,12.445,10.125,22.57,22.57,22.57h3.617v14.5c0,4.142,3.358,7.5,7.5,7.5s7.5-3.358,7.5-7.5v-14.5h298v14.5   c0,4.142,3.357,7.5,7.5,7.5s7.5-3.358,7.5-7.5v-14.5h3.617c12.444,0,22.569-10.125,22.569-22.57V85.132   C381.969,72.688,371.844,62.563,359.399,62.563z M191.779,36.563c15.893,0,29.227,11.128,32.644,26h-65.287   C162.552,47.692,175.885,36.563,191.779,36.563z M366.969,338.993c0,4.174-3.396,7.57-7.569,7.57H24.164   c-4.174,0-7.57-3.396-7.57-7.57V85.132c0-4.174,3.396-7.569,7.57-7.569h335.235c4.174,0,7.569,3.396,7.569,7.569V338.993z" fill="#ffff40"/>
	<path d="M346.972,103.687c-0.577-3.369-3.358-5.922-6.764-6.208c-98.491-8.285-198.365-8.285-296.854,0   c-3.406,0.287-6.187,2.839-6.764,6.208c-11.912,69.591-11.912,140.162,0,209.752c0.577,3.369,3.358,5.921,6.764,6.208   c49.244,4.143,98.835,6.214,148.427,6.214c49.591,0,99.182-2.071,148.427-6.214c3.405-0.287,6.187-2.839,6.764-6.208   C358.884,243.848,358.884,173.278,346.972,103.687z M333.14,305.179c-93.832,7.576-188.886,7.576-282.716,0   c-10.354-64.139-10.354-129.093,0-193.232c93.831-7.576,188.884-7.576,282.716,0C343.493,176.086,343.493,241.04,333.14,305.179z" fill="#ffff40"/>
	<path d="M321.094,168.689c-4.136,0.229-7.303,3.768-7.073,7.904c1.457,26.309,1.103,52.978-1.054,79.266   c-0.339,4.128,2.733,7.75,6.861,8.088c0.209,0.017,0.416,0.025,0.621,0.025c3.864,0,7.146-2.968,7.467-6.887   c2.213-26.97,2.577-54.331,1.081-81.323C328.768,171.627,325.247,168.466,321.094,168.689z" fill="#ffff40"/>
	<path d="M319.672,159.642c0.241,0,0.485-0.012,0.73-0.035c4.123-0.399,7.143-4.064,6.743-8.188   c-0.743-7.689-1.651-15.482-2.698-23.165c-0.56-4.105-4.355-6.977-8.444-6.418c-4.104,0.56-6.979,4.34-6.419,8.444   c1.021,7.489,1.906,15.087,2.632,22.583C312.591,156.741,315.854,159.642,319.672,159.642z" fill="#ffff40"/>
	<path d="M357.635,325.832c-5.754-3.788-13.351,1.804-11.339,8.411c0.913,2.997,3.672,5.151,6.801,5.309   c3.269,0.165,6.321-1.891,7.431-4.962C361.675,331.414,360.459,327.691,357.635,325.832z" fill="#ffff40"/>
</g>
<g>
</g>
<g>
</g>
<g>
</g>
<g>
</g>
<g>
</g>
<g>
</g>
<g>
</g>
<g>
</g>
<g>
</g>
<g>
</g>
<g>
</g>
<g>
</g>
<g>
</g>
<g>
</g>
<g>
</g>
</svg>
